<svg width="30" height="30" viewBox="0 0 30 30" fill="none" xmlns="http://www.w3.org/2000/svg">
<path d="M6.87875 5.78375L6.875 8.4375V21.5675C6.875 22.6449 7.30301 23.6783 8.06488 24.4401C8.82675 25.202 9.86006 25.63 10.9375 25.63H21.7075C21.5134 26.1784 21.1542 26.6531 20.6791 26.9889C20.2041 27.3247 19.6367 27.505 19.055 27.505H10.9375C9.36278 27.505 7.85255 26.8794 6.73905 25.7659C5.62556 24.6524 5 23.1422 5 21.5675V8.4375C5 7.2125 5.78375 6.16875 6.87875 5.78375ZM16.41 2.5C17.1562 2.5 17.8725 2.79625 18.4 3.325L24.1725 9.1C24.7 9.6275 24.9963 10.3438 24.9963 11.0888V21.5675C24.9963 22.3134 24.6999 23.0288 24.1725 23.5562C23.645 24.0837 22.9297 24.38 22.1838 24.38H10.94C10.1941 24.38 9.47871 24.0837 8.95126 23.5562C8.42382 23.0288 8.1275 22.3134 8.1275 21.5675V5.3125C8.1275 4.56658 8.42382 3.85121 8.95126 3.32376C9.47871 2.79632 10.1941 2.5 10.94 2.5H16.41ZM16.25 4.375H10.94C10.6914 4.375 10.4529 4.47377 10.2771 4.64959C10.1013 4.8254 10.0025 5.06386 10.0025 5.3125V21.5675C10.0025 22.085 10.4225 22.505 10.94 22.505H22.1838C22.4324 22.505 22.6708 22.4062 22.8467 22.2304C23.0225 22.0546 23.1213 21.8161 23.1213 21.5675V11.2537H19.0625C18.35 11.2539 17.6641 10.9836 17.1432 10.4975C16.6223 10.0114 16.3053 9.34576 16.2563 8.635L16.25 8.4425V4.375ZM18.125 5.70125L18.1263 8.4425C18.1263 8.9175 18.4788 9.30875 18.9363 9.37125L19.0638 9.38L21.8013 9.37875L18.1263 5.70125H18.125Z" fill="black"/>
</svg>
