<svg width="63" height="64" viewBox="0 0 63 64" fill="none" xmlns="http://www.w3.org/2000/svg">
<g filter="url(#filter0_d_1391_6227)">
<rect x="2" y="2" width="58.6667" height="60" rx="4" fill="#EFEFEF"/>
<path fill-rule="evenodd" clip-rule="evenodd" d="M35.9544 36.7579L43.6983 44.5822C43.9705 44.8574 44.1233 45.2306 44.1232 45.6196C44.1231 46.0087 43.97 46.3818 43.6976 46.6568C43.4252 46.9318 43.0559 47.0862 42.6708 47.0861C42.2857 47.0859 41.9165 46.9313 41.6443 46.656L33.9004 38.8318C31.5854 40.6434 28.6743 41.4959 25.7593 41.2159C22.8443 40.9359 20.1444 39.5445 18.2088 37.3246C16.2732 35.1047 15.2472 32.2231 15.3397 29.2661C15.4322 26.309 16.6362 23.4987 18.7067 21.4067C20.7772 19.3147 23.5587 18.0983 26.4854 18.0048C29.4121 17.9114 32.264 18.9479 34.4612 20.9036C36.6583 22.8593 38.0355 25.5873 38.3126 28.5325C38.5897 31.4777 37.746 34.419 35.9529 36.7579H35.9544ZM26.8502 38.3591C29.1407 38.3591 31.3374 37.4398 32.957 35.8034C34.5767 34.167 35.4866 31.9475 35.4866 29.6332C35.4866 27.319 34.5767 25.0995 32.957 23.4631C31.3374 21.8266 29.1407 20.9073 26.8502 20.9073C24.5597 20.9073 22.363 21.8266 20.7434 23.4631C19.1237 25.0995 18.2138 27.319 18.2138 29.6332C18.2138 31.9475 19.1237 34.167 20.7434 35.8034C22.363 37.4398 24.5597 38.3591 26.8502 38.3591Z" fill="black"/>
</g>
<defs>
<filter id="filter0_d_1391_6227" x="0" y="0" width="62.6665" height="64" filterUnits="userSpaceOnUse" color-interpolation-filters="sRGB">
<feFlood flood-opacity="0" result="BackgroundImageFix"/>
<feColorMatrix in="SourceAlpha" type="matrix" values="0 0 0 0 0 0 0 0 0 0 0 0 0 0 0 0 0 0 127 0" result="hardAlpha"/>
<feOffset/>
<feGaussianBlur stdDeviation="1"/>
<feComposite in2="hardAlpha" operator="out"/>
<feColorMatrix type="matrix" values="0 0 0 0 0 0 0 0 0 0 0 0 0 0 0 0 0 0 0.25 0"/>
<feBlend mode="normal" in2="BackgroundImageFix" result="effect1_dropShadow_1391_6227"/>
<feBlend mode="normal" in="SourceGraphic" in2="effect1_dropShadow_1391_6227" result="shape"/>
</filter>
</defs>
</svg>
