<svg width="48" height="48" viewBox="0 0 48 48" fill="none" xmlns="http://www.w3.org/2000/svg">
<path d="M12 9.927V7C12 6.20435 12.3161 5.44129 12.8787 4.87868C13.4413 4.31607 14.2044 4 15 4H41C41.7956 4 42.5587 4.31607 43.1213 4.87868C43.6839 5.44129 44 6.20435 44 7V33C44 33.7956 43.6839 34.5587 43.1213 35.1213C42.5587 35.6839 41.7956 36 41 36H38.017" stroke="black" stroke-width="4"/>
<path d="M35 10H7C5.34315 10 4 11.3431 4 13V41C4 42.6569 5.34315 44 7 44H35C36.6569 44 38 42.6569 38 41V13C38 11.3431 36.6569 10 35 10Z" stroke="black" stroke-width="4" stroke-linejoin="round"/>
<path d="M18.4399 23.11L23.7319 17.6C25.1829 16.149 27.5689 16.18 29.0599 17.672C30.5509 19.163 30.5829 21.549 29.1319 23L27.2219 25.023M13.4659 28.747C12.9559 29.257 11.9009 30.277 11.9009 30.277C10.4489 31.728 10.4089 34.315 11.9009 35.807C13.3909 37.297 15.7769 37.33 17.2289 35.878L22.3929 31.19" stroke="black" stroke-width="4" stroke-linecap="round" stroke-linejoin="round"/>
<path d="M18.6632 28.328C17.9989 27.668 17.597 26.7892 17.5322 25.855C17.4939 25.3309 17.5687 24.8048 17.7516 24.3122C17.9345 23.8196 18.2212 23.3721 18.5922 23M22.3212 25.861C23.8122 27.352 23.8442 29.738 22.3932 31.19" stroke="black" stroke-width="4" stroke-linecap="round" stroke-linejoin="round"/>
</svg>
